<svg width="54" height="55" viewBox="0 0 54 55" fill="none" xmlns="http://www.w3.org/2000/svg">
<path d="M10.0022 0.695608C8.51171 1.12759 7.72722 1.5203 6.88389 2.30572C5.55026 3.48384 5.49143 3.66056 2.17696 12.3002C0.35302 17.1305 0 18.2694 0 19.3886C0 21.627 1.31402 23.728 3.29486 24.7098C4.29508 25.2007 4.60887 25.2596 6.47204 25.2596C8.27636 25.2596 8.66861 25.2007 9.60999 24.7491C10.7279 24.2189 12.1988 22.9033 12.6499 22.0001C13.1206 21.0969 13.454 21.1558 14.3169 22.3143C14.7484 22.8837 15.3956 23.5906 15.7486 23.8655C18.7493 26.1628 23.1817 25.6916 25.4763 22.8444C25.8097 22.4517 26.2608 21.9019 26.4765 21.627L26.8688 21.1361L27.2218 21.6074C28.2612 23.0211 29.3791 24.0422 30.5362 24.6116C33.733 26.1824 37.5378 25.1418 39.6363 22.0786C39.9697 21.6074 40.3228 21.2343 40.4012 21.2736C40.4993 21.3129 40.9111 21.8234 41.323 22.4124C42.7547 24.4742 44.9512 25.4756 47.7166 25.3185C51.0899 25.1221 53.0707 23.4531 53.7767 20.1936C54.0317 18.9762 53.7964 18.1319 51.8744 13.0856C51.0899 11.0239 50.1289 8.47125 49.717 7.3913C48.6187 4.40671 48.0696 3.42494 46.9517 2.40389C46.4025 1.89337 45.4219 1.26504 44.7943 0.990141L43.6372 0.518888L27.261 0.479618C14.4542 0.459984 10.6887 0.499254 10.0022 0.695608Z" fill="#FEF102"/>
<path d="M12.8263 27.2035C12.4929 27.3605 11.8065 27.7925 11.277 28.1852C9.13922 29.815 7.68792 30.2077 5.17755 29.815L4.17733 29.6579L4.05965 32.7603C3.86353 37.4532 3.90276 47.0746 4.1381 48.6258C4.47151 51.0213 5.55018 52.5529 7.68792 53.731C8.6293 54.2611 8.9431 54.32 10.8847 54.3789C12.7675 54.4575 13.1009 54.4182 13.3362 54.1041C13.5716 53.8292 13.65 52.3565 13.7285 45.6019C13.8265 36.7267 13.8265 36.8052 14.9837 36.0002C15.5916 35.5878 15.8074 35.5682 19.5337 35.5682C23.8876 35.5682 24.476 35.7056 25.1428 36.8641C25.4566 37.3943 25.4958 38.1797 25.4958 45.4448L25.5154 53.4364L25.9861 53.9666L26.4372 54.5164L34.3998 54.536C38.7929 54.5557 42.8723 54.4771 43.4802 54.3789C46.6378 53.8881 49.1286 51.4533 49.6385 48.3509C49.7365 47.7422 49.815 43.3045 49.815 38.4742V29.6972L47.9126 29.815C45.1865 29.9721 44.7747 29.8346 41.7348 27.6158C40.5776 26.7715 39.7147 26.85 38.283 27.8907C36.4395 29.2455 34.9685 29.8739 33.7134 29.8739C32.2032 29.8739 31.556 29.6186 29.5163 28.2245C27.104 26.5948 26.6137 26.5948 24.3583 28.1852C22.6324 29.4026 21.4361 29.8739 20.0828 29.8739C19.0434 29.8739 17.0037 29.1474 17.1802 28.8528C17.2587 28.735 17.2195 28.6958 17.1018 28.7743C16.9841 28.8332 16.3369 28.4994 15.6505 28.0281C14.1796 26.9875 13.65 26.85 12.8263 27.2035ZM39.3421 35.8823C40.6169 36.491 40.7934 37.0801 40.7934 40.5948C40.7934 45.3859 40.5188 45.6412 35.5765 45.543C32.2817 45.4841 31.7914 45.327 31.203 44.1096C30.8304 43.3242 30.6735 39.3185 30.9676 37.9048C31.3795 35.902 32.0463 35.5878 35.8511 35.5878C38.0673 35.5682 38.8125 35.6467 39.3421 35.8823Z" fill="#FEF102"/>
</svg>
